<svg class="svg-icon" style="width: 1.298828125em; height: 1em;vertical-align: middle;fill: currentColor;overflow: hidden;" viewBox="0 0 1330 1024" version="1.1" xmlns="http://www.w3.org/2000/svg"><path d="M0 167.989542h1061.479739v187.398693H0z"  /><path d="M1318.48366 236.256209L1092.266667 10.039216c-13.385621-13.385621-34.802614-13.385621-48.188236 0V509.322876c13.385621 13.385621 34.802614 13.385621 48.188236 0l226.216993-226.216994c13.385621-10.708497 13.385621-33.464052 0-46.849673z"  /><path d="M1328.469333 855.809673h-1061.479738v-187.398693h1061.479738z"  /><path d="M9.369935 787.743791l226.216993 226.216993c13.385621 13.385621 34.802614 13.385621 48.188235 0V513.338562c-13.385621-13.385621-34.802614-13.385621-48.188235 0L9.369935 738.216993c-12.047059 13.385621-12.047059 36.141176 0 49.526798z"  /></svg>